<svg width="49" height="47" viewBox="0 0 49 47" fill="none" xmlns="http://www.w3.org/2000/svg">
<path d="M4.61916 16.756C5.54239 10.9039 6.004 7.97793 7.42146 5.76587C8.7549 3.68494 10.674 2.04487 12.9373 1.05201C15.3432 -0.00341797 18.3054 -0.00341797 24.2298 -0.00341797C30.1543 -0.00341797 33.1165 -0.00341797 35.5224 1.05201C37.7857 2.04487 39.7048 3.68494 41.0382 5.76587C42.4557 7.97793 42.9173 10.9039 43.8405 16.756L44.6838 22.1014C46.0543 30.7881 46.7395 35.1314 45.3046 38.4616C44.3041 40.7837 42.6247 42.7488 40.487 44.0989C37.421 46.0352 33.024 46.0352 24.2298 46.0352C15.4357 46.0352 11.0387 46.0352 7.97272 44.0989C5.83496 42.7488 4.15554 40.7837 3.15507 38.4616C1.72021 35.1314 2.40543 30.7881 3.77586 22.1014L4.61916 16.756Z" fill="#E61045"/>
<path d="M33.8938 9.68091C33.8938 15.0294 29.558 19.3651 24.2096 19.3651C18.8612 19.3651 14.5254 15.0294 14.5254 9.68091" stroke="white" stroke-width="4.84211" stroke-linecap="round"/>
<path d="M16.9476 9.68085C16.9476 11.018 15.8636 12.1019 14.5265 12.1019C13.1894 12.1019 12.1055 11.018 12.1055 9.68085C12.1055 8.34374 13.1894 7.2598 14.5265 7.2598C15.8636 7.2598 16.9476 8.34374 16.9476 9.68085Z" fill="#A8002A"/>
<path d="M36.3167 9.68082C36.3167 11.0179 35.2328 12.1019 33.8957 12.1019C32.5586 12.1019 31.4746 11.0179 31.4746 9.68082C31.4746 8.34371 32.5586 7.25977 33.8957 7.25977C35.2328 7.25977 36.3167 8.34371 36.3167 9.68082Z" fill="#A8002A"/>
<circle cx="18.9696" cy="31.7693" r="3.93051" fill="#FFBD17"/>
<circle cx="29.6375" cy="31.7693" r="3.93051" fill="#FFBD17"/>
</svg>
