<svg width="15" height="14" viewBox="0 0 15 14" fill="none" xmlns="http://www.w3.org/2000/svg">
<path d="M7.74135 3.76074C9.63736 3.76074 11.2023 5.32569 11.2023 7.2217C11.2023 9.1478 9.63736 10.6827 7.74135 10.6827C5.81525 10.6827 4.28039 9.1478 4.28039 7.2217C4.28039 5.32569 5.81525 3.76074 7.74135 3.76074ZM7.74135 9.47885C8.97526 9.47885 9.96841 8.4857 9.96841 7.2217C9.96841 5.98779 8.97526 4.99464 7.74135 4.99464C6.47735 4.99464 5.4842 5.98779 5.4842 7.2217C5.4842 8.4857 6.50744 9.47885 7.74135 9.47885ZM12.1353 3.64035C12.1353 4.09178 11.7741 4.45293 11.3227 4.45293C10.8713 4.45293 10.5101 4.09178 10.5101 3.64035C10.5101 3.18892 10.8713 2.82778 11.3227 2.82778C11.7741 2.82778 12.1353 3.18892 12.1353 3.64035ZM14.4225 4.45293C14.4827 5.56645 14.4827 8.90704 14.4225 10.0206C14.3623 11.104 14.1216 12.0369 13.3391 12.8495C12.5566 13.632 11.5936 13.8728 10.5101 13.933C9.3966 13.9931 6.05601 13.9931 4.94249 13.933C3.85906 13.8728 2.9261 13.632 2.11353 12.8495C1.33105 12.0369 1.09029 11.104 1.0301 10.0206C0.969905 8.90704 0.969905 5.56645 1.0301 4.45293C1.09029 3.3695 1.33105 2.40645 2.11353 1.62397C2.9261 0.841489 3.85906 0.600727 4.94249 0.540536C6.05601 0.480345 9.3966 0.480345 10.5101 0.540536C11.5936 0.600727 12.5566 0.841489 13.3391 1.62397C14.1216 2.40645 14.3623 3.3695 14.4225 4.45293ZM12.9779 11.1943C13.3391 10.3215 13.2488 8.21484 13.2488 7.2217C13.2488 6.25865 13.3391 4.15197 12.9779 3.24912C12.7372 2.6773 12.2857 2.19578 11.7139 1.98511C10.8111 1.62397 8.7044 1.71425 7.74135 1.71425C6.74821 1.71425 4.64153 1.62397 3.76877 1.98511C3.16686 2.22587 2.71543 2.6773 2.47467 3.24912C2.11353 4.15197 2.20381 6.25865 2.20381 7.2217C2.20381 8.21484 2.11353 10.3215 2.47467 11.1943C2.71543 11.7962 3.16686 12.2476 3.76877 12.4884C4.64153 12.8495 6.74821 12.7592 7.74135 12.7592C8.7044 12.7592 10.8111 12.8495 11.7139 12.4884C12.2857 12.2476 12.7673 11.7962 12.9779 11.1943Z" fill="white"/>
</svg>
