<svg width="14" height="14" viewBox="0 0 14 14" fill="none" xmlns="http://www.w3.org/2000/svg">
<path d="M3.00953 14H0.210667V5.0015H3.00953V14ZM1.59505 3.79769C0.722288 3.79769 0 3.0453 0 2.14244C0 1.26968 0.722288 0.54739 1.59505 0.54739C2.49791 0.54739 3.2202 1.26968 3.2202 2.14244C3.2202 3.0453 2.49791 3.79769 1.59505 3.79769ZM13.4526 14H10.6838V9.63618C10.6838 8.58284 10.6537 7.25865 9.20917 7.25865C7.76459 7.25865 7.55393 8.37217 7.55393 9.54589V14H4.75506V5.0015H7.43355V6.23541H7.46364C7.85488 5.54321 8.75774 4.79083 10.112 4.79083C12.941 4.79083 13.4827 6.65674 13.4827 9.06437V14H13.4526Z" fill="white"/>
</svg>
