<svg width="16" height="13" viewBox="0 0 16 13" fill="none" xmlns="http://www.w3.org/2000/svg">
<path d="M13.8138 3.09178C13.8138 3.24226 13.8138 3.36264 13.8138 3.51312C13.8138 7.69637 10.6537 12.4815 4.84535 12.4815C3.03963 12.4815 1.38438 11.9699 0 11.067C0.240763 11.0971 0.481525 11.1272 0.752383 11.1272C2.22705 11.1272 3.58134 10.6156 4.66478 9.77295C3.28039 9.74285 2.10667 8.83999 1.71543 7.57599C1.9261 7.60608 2.10667 7.63618 2.31734 7.63618C2.5882 7.63618 2.88915 7.57599 3.12991 7.5158C1.68534 7.21484 0.601906 5.95084 0.601906 4.41598V4.38588C1.02324 4.62665 1.53486 4.74703 2.04648 4.77712C1.17372 4.20531 0.632002 3.24226 0.632002 2.15883C0.632002 1.55692 0.782478 1.01521 1.05334 0.563777C2.61829 2.45978 4.96573 3.72379 7.58402 3.87426C7.52383 3.6335 7.49374 3.39274 7.49374 3.15197C7.49374 1.40645 8.90822 -0.00803424 10.6537 -0.00803424C11.5566 -0.00803424 12.3692 0.35311 12.9711 0.985111C13.6633 0.834635 14.3555 0.563777 14.9574 0.202633C14.7166 0.955016 14.2351 1.55692 13.573 1.94816C14.205 1.88797 14.837 1.7074 15.3787 1.46664C14.9574 2.09864 14.4157 2.64035 13.8138 3.09178Z" fill="white"/>
</svg>
