<svg width="22" height="22" viewBox="0 0 22 22" fill="none" xmlns="http://www.w3.org/2000/svg">
<path d="M8.25 9.625C8.25 10.0329 8.37096 10.4317 8.59759 10.7709C8.82422 11.11 9.14634 11.3744 9.52322 11.5305C9.90009 11.6866 10.3148 11.7275 10.7149 11.6479C11.115 11.5683 11.4825 11.3719 11.7709 11.0834C12.0594 10.795 12.2558 10.4275 12.3354 10.0274C12.415 9.62729 12.3741 9.21259 12.218 8.83572C12.0619 8.45884 11.7975 8.13672 11.4584 7.91009C11.1192 7.68346 10.7204 7.5625 10.3125 7.5625C9.76549 7.5625 9.24089 7.7798 8.85409 8.16659C8.4673 8.55339 8.25 9.07799 8.25 9.625ZM2.75 3.4375V18.5625C2.75 18.9272 2.89487 19.2769 3.15273 19.5348C3.41059 19.7926 3.76033 19.9375 4.125 19.9375H16.5C16.8647 19.9375 17.2144 19.7926 17.4723 19.5348C17.7301 19.2769 17.875 18.9272 17.875 18.5625V16.5H19.25C19.4323 16.5 19.6072 16.4276 19.7361 16.2986C19.8651 16.1697 19.9375 15.9948 19.9375 15.8125C19.9375 15.6302 19.8651 15.4553 19.7361 15.3264C19.6072 15.1974 19.4323 15.125 19.25 15.125H17.875V11.6875H19.25C19.4323 11.6875 19.6072 11.6151 19.7361 11.4861C19.8651 11.3572 19.9375 11.1823 19.9375 11C19.9375 10.8177 19.8651 10.6428 19.7361 10.5139C19.6072 10.3849 19.4323 10.3125 19.25 10.3125H17.875V6.875H19.25C19.4323 6.875 19.6072 6.80257 19.7361 6.67364C19.8651 6.5447 19.9375 6.36984 19.9375 6.1875C19.9375 6.00516 19.8651 5.8303 19.7361 5.70136C19.6072 5.57243 19.4323 5.5 19.25 5.5H17.875V3.4375C17.875 3.07283 17.7301 2.72309 17.4723 2.46523C17.2144 2.20737 16.8647 2.0625 16.5 2.0625H4.125C3.76033 2.0625 3.41059 2.20737 3.15273 2.46523C2.89487 2.72309 2.75 3.07283 2.75 3.4375ZM5.6375 14.025C6.24633 13.2089 7.05811 12.5663 7.99219 12.161C7.48027 11.6936 7.12161 11.0824 6.96329 10.4075C6.80496 9.73268 6.85436 9.02572 7.10501 8.37944C7.35566 7.73316 7.79585 7.17775 8.3678 6.78612C8.93975 6.39448 9.61674 6.18491 10.3099 6.18491C11.0031 6.18491 11.6801 6.39448 12.252 6.78612C12.824 7.17775 13.2642 7.73316 13.5148 8.37944C13.7655 9.02572 13.8149 9.73268 13.6566 10.4075C13.4982 11.0824 13.1396 11.6936 12.6277 12.161C13.5636 12.5655 14.3772 13.2082 14.9875 14.025C15.0417 14.0972 15.0811 14.1794 15.1035 14.2669C15.1259 14.3543 15.1309 14.4454 15.1181 14.5347C15.1053 14.6241 15.0751 14.7101 15.0291 14.7878C14.9831 14.8655 14.9222 14.9333 14.85 14.9875C14.7778 15.0417 14.6956 15.0811 14.6081 15.1035C14.5207 15.1259 14.4296 15.1309 14.3403 15.1181C14.2509 15.1053 14.1649 15.0751 14.0872 15.0291C14.0095 14.9831 13.9417 14.9222 13.8875 14.85C13.4712 14.295 12.9315 13.8445 12.311 13.5343C11.6905 13.224 11.0063 13.0625 10.3125 13.0625C9.61875 13.0625 8.93452 13.224 8.31401 13.5343C7.6935 13.8445 7.15375 14.295 6.7375 14.85C6.6281 14.9959 6.46523 15.0923 6.28473 15.1181C6.10422 15.1439 5.92087 15.0969 5.775 14.9875C5.62913 14.8781 5.5327 14.7152 5.50691 14.5347C5.48112 14.3542 5.5281 14.1709 5.6375 14.025Z" fill="#6B6D6E"/>
</svg>
