<svg width="20" height="20" viewBox="0 0 20 20" fill="none" xmlns="http://www.w3.org/2000/svg">
<path d="M1 1H4.46955L4.83455 4.46154M4.83455 4.46154L5.72692 12.9146C5.7629 13.2547 5.92374 13.5694 6.17843 13.7982C6.43313 14.027 6.76368 14.1537 7.10641 14.1538H15.8774C16.1868 14.1538 16.4873 14.0507 16.7312 13.8608C16.9751 13.6709 17.1484 13.4051 17.2236 13.1057L18.9584 6.18262C19.0097 5.97845 19.0136 5.76532 18.9699 5.55941C18.9262 5.35351 18.8361 5.16025 18.7063 4.99432C18.5765 4.82839 18.4105 4.69417 18.2209 4.60185C18.0314 4.50953 17.8232 4.46154 17.6122 4.46154H4.83455ZM13.6347 9.30769H9.47126M15.4972 19C15.3131 19 15.1366 18.9271 15.0065 18.7972C14.8764 18.6674 14.8033 18.4913 14.8033 18.3077C14.8033 18.1241 14.8764 17.948 15.0065 17.8182C15.1366 17.6883 15.3131 17.6154 15.4972 17.6154C15.6812 17.6154 15.8577 17.6883 15.9878 17.8182C16.118 17.948 16.1911 18.1241 16.1911 18.3077C16.1911 18.4913 16.118 18.6674 15.9878 18.7972C15.8577 18.9271 15.6812 19 15.4972 19ZM6.47634 19C6.2923 19 6.11581 18.9271 5.98567 18.7972C5.85554 18.6674 5.78243 18.4913 5.78243 18.3077C5.78243 18.1241 5.85554 17.948 5.98567 17.8182C6.11581 17.6883 6.2923 17.6154 6.47634 17.6154C6.66038 17.6154 6.83688 17.6883 6.96701 17.8182C7.09714 17.948 7.17025 18.1241 7.17025 18.3077C7.17025 18.4913 7.09714 18.6674 6.96701 18.7972C6.83688 18.9271 6.66038 19 6.47634 19Z" stroke="#52575C" stroke-width="2" stroke-linecap="round" stroke-linejoin="round"/>
</svg>
