<svg width="22" height="22" viewBox="0 0 22 22" fill="none" xmlns="http://www.w3.org/2000/svg">
<path d="M6.41669 19.25C5.91252 19.25 5.48108 19.0706 5.12236 18.7119C4.76363 18.3532 4.58397 17.9214 4.58336 17.4167V5.5C4.32363 5.5 4.10608 5.412 3.93069 5.236C3.7553 5.06 3.6673 4.84244 3.66669 4.58333C3.66608 4.32422 3.75408 4.10667 3.93069 3.93067C4.1073 3.75467 4.32486 3.66667 4.58336 3.66667H8.25002C8.25002 3.40694 8.33802 3.18939 8.51402 3.014C8.69002 2.83861 8.90758 2.75061 9.16669 2.75H12.8334C13.0931 2.75 13.3109 2.838 13.4869 3.014C13.6629 3.19 13.7506 3.40756 13.75 3.66667H17.4167C17.6764 3.66667 17.8943 3.75467 18.0703 3.93067C18.2463 4.10667 18.334 4.32422 18.3334 4.58333C18.3327 4.84244 18.2447 5.06031 18.0694 5.23692C17.894 5.41353 17.6764 5.50122 17.4167 5.5V17.4167C17.4167 17.9208 17.2373 18.3526 16.8786 18.7119C16.5199 19.0713 16.0881 19.2506 15.5834 19.25H6.41669ZM15.5834 5.5H6.41669V17.4167H15.5834V5.5ZM9.16669 15.5833C9.42641 15.5833 9.64427 15.4953 9.82027 15.3193C9.99627 15.1433 10.084 14.9258 10.0834 14.6667V8.25C10.0834 7.99028 9.99536 7.77272 9.81936 7.59733C9.64336 7.42194 9.4258 7.33394 9.16669 7.33333C8.90758 7.33272 8.69002 7.42072 8.51402 7.59733C8.33802 7.77394 8.25002 7.9915 8.25002 8.25V14.6667C8.25002 14.9264 8.33802 15.1442 8.51402 15.3202C8.69002 15.4963 8.90758 15.5839 9.16669 15.5833ZM12.8334 15.5833C13.0931 15.5833 13.3109 15.4953 13.4869 15.3193C13.6629 15.1433 13.7506 14.9258 13.75 14.6667V8.25C13.75 7.99028 13.662 7.77272 13.486 7.59733C13.31 7.42194 13.0925 7.33394 12.8334 7.33333C12.5742 7.33272 12.3567 7.42072 12.1807 7.59733C12.0047 7.77394 11.9167 7.9915 11.9167 8.25V14.6667C11.9167 14.9264 12.0047 15.1442 12.1807 15.3202C12.3567 15.4963 12.5742 15.5839 12.8334 15.5833Z" fill="#979EAF"/>
</svg>
