<svg width="22" height="22" viewBox="0 0 22 22" fill="none" xmlns="http://www.w3.org/2000/svg">
<path fill-rule="evenodd" clip-rule="evenodd" d="M11 1.8335C9.79622 1.83349 8.60422 2.07059 7.49206 2.53125C6.37991 2.99192 5.36938 3.66713 4.51817 4.51833C3.66697 5.36953 2.99175 6.38006 2.53108 7.49221C2.07041 8.60436 1.83331 9.79636 1.83331 11.0001C1.83331 16.0628 5.93738 20.1668 11 20.1668C16.0626 20.1668 20.1667 16.0628 20.1667 11.0001C20.1667 5.93757 16.0626 1.8335 11 1.8335ZM10.0833 11.9168H11.9167C14.1861 11.9168 16.1344 13.2913 16.9747 15.2533C15.6451 17.1177 13.4645 18.3335 11 18.3335C8.53549 18.3335 6.35491 17.1177 5.02524 15.2532C5.86558 13.2913 7.81391 11.9168 10.0833 11.9168ZM11 4.5835C12.5188 4.5835 13.75 5.81472 13.75 7.3335C13.75 8.85227 12.5188 10.0835 11 10.0835C9.48123 10.0835 8.25 8.85227 8.25 7.3335C8.25 5.81472 9.48119 4.5835 11 4.5835Z" fill="#6B6D6E"/>
</svg>
