<svg width="22" height="22" viewBox="0 0 22 22" fill="none" xmlns="http://www.w3.org/2000/svg">
<path d="M7.4 4C8.10665 3.99989 8.8029 4.17402 9.42963 4.50759C10.0564 4.84116 10.5951 5.32433 11 5.91608C11.4049 5.32433 11.9436 4.84116 12.5704 4.50759C13.1971 4.17402 13.8933 3.99989 14.6 4C15.767 4 16.8861 4.47368 17.7113 5.31682C18.5364 6.15997 19 7.30352 19 8.49591C19 13.1708 13.8 17.0283 11 19C8.2 17.0283 3 13.1708 3 8.49591C3 7.9055 3.11381 7.32087 3.33493 6.7754C3.55605 6.22993 3.88015 5.73431 4.28873 5.31682C4.69731 4.89934 5.18236 4.56817 5.71619 4.34223C6.25002 4.11629 6.82218 4 7.4 4Z" fill="#6B6D6E"/>
</svg>
