<svg width="21" height="16" viewBox="0 0 21 16" fill="none" xmlns="http://www.w3.org/2000/svg">
<g clip-path="url(#clip0_1_3350)">
<path d="M0.618187 1.70188C1.89098 1.19344 3.16476 1 4.43789 1C8.47941 0.999688 12.5206 2.94812 16.5621 2.94812C17.5757 2.94812 18.5886 2.82563 19.6022 2.51938C19.716 2.485 19.8302 2.46875 19.9418 2.46875C20.5065 2.46875 21 2.885 21 3.46281V13.3772C21 13.7719 20.7628 14.1459 20.3818 14.2978C19.109 14.8066 17.8352 15 16.5621 15C12.5206 15 8.47908 13.0516 4.43756 13.0516C3.42398 13.0516 2.41106 13.1741 1.39748 13.4803C1.28362 13.5147 1.16944 13.5309 1.05787 13.5309C0.49317 13.5309 -0.000329971 13.1147 -0.000329971 12.5369V2.62281C-1.90735e-06 2.22781 0.237234 1.85406 0.618187 1.70188ZM19.425 4.13188C18.7648 4.28938 18.0757 4.36844 17.367 4.41094C17.5599 5.32937 18.4078 6.02156 19.425 6.02156V4.13188ZM19.425 13.0381V11.545C18.2972 11.545 17.3847 12.3972 17.3345 13.4637C18.0738 13.4072 18.7648 13.2666 19.425 13.0381ZM10.5 11C11.95 11 13.125 9.65656 13.125 8C13.125 6.34312 11.9497 5 10.5 5C9.05034 5 7.875 6.34312 7.875 8C7.875 9.65719 9.05067 11 10.5 11ZM1.575 11.8681C2.14987 11.7309 2.74673 11.6541 3.35737 11.6044C3.16476 10.7894 2.45503 10.1706 1.575 10.0644V11.8681ZM1.575 4.48969C2.58858 4.3675 3.37509 3.56156 3.40627 2.56625C2.76511 2.63406 2.15644 2.76094 1.575 2.96187V4.48969Z" fill="#6B6D6E"/>
</g>
<defs>
<clipPath id="clip0_1_3350">
<rect width="21" height="16" fill="white" transform="matrix(-1 0 0 1 21 0)"/>
</clipPath>
</defs>
</svg>
