<svg width="22" height="22" viewBox="0 0 22 22" fill="none" xmlns="http://www.w3.org/2000/svg">
<path fill-rule="evenodd" clip-rule="evenodd" d="M19.6903 7.17109C20.167 8.03918 20.167 9.08876 20.167 11.1861V12.5813C20.167 16.1563 20.167 17.9447 19.0927 19.0557C18.0183 20.1667 16.2904 20.1667 12.8337 20.1667H9.16699C5.71024 20.1667 3.98141 20.1667 2.90799 19.0557C1.83458 17.9447 1.83366 16.1572 1.83366 12.5813V11.187C1.83366 9.08876 1.83366 8.04009 2.31033 7.17109C2.78516 6.30118 3.65508 5.76218 5.39399 4.68234L7.22733 3.54476C9.06524 2.40351 9.98466 1.83334 11.0003 1.83334C12.016 1.83334 12.9345 2.40351 14.7733 3.54476L16.6067 4.68234C18.3456 5.76218 19.2146 6.30118 19.6903 7.17109ZM13.3415 14.1148C13.4138 14.0586 13.4966 14.0174 13.585 13.9935C13.6735 13.9697 13.7658 13.9638 13.8565 13.9762C13.9473 13.9886 14.0346 14.0189 14.1135 14.0655C14.1923 14.1121 14.2611 14.174 14.3157 14.2476C14.3703 14.3211 14.4096 14.4048 14.4314 14.4938C14.4532 14.5827 14.4571 14.6751 14.4426 14.7656C14.4282 14.856 14.3959 14.9427 14.3475 15.0205C14.2992 15.0983 14.2357 15.1656 14.161 15.2185C13.2483 15.9006 12.1397 16.2697 11.0003 16.2708C9.86124 16.2695 8.75303 15.9004 7.84058 15.2185C7.76583 15.1656 7.7024 15.0983 7.65404 15.0205C7.60567 14.9427 7.57333 14.856 7.55892 14.7656C7.54451 14.6751 7.54832 14.5827 7.57012 14.4938C7.59192 14.4048 7.63128 14.3211 7.68588 14.2476C7.74049 14.174 7.80923 14.1121 7.88808 14.0655C7.96693 14.0189 8.0543 13.9886 8.14505 13.9762C8.2358 13.9638 8.32811 13.9697 8.41655 13.9935C8.505 14.0174 8.58779 14.0586 8.66008 14.1148C9.33557 14.6206 10.1564 14.8946 11.0003 14.8958C11.8442 14.8946 12.666 14.6206 13.3415 14.1148Z" fill="#6B6D6E"/>
</svg>
