<svg width="20" height="20" viewBox="0 0 20 20" fill="none" xmlns="http://www.w3.org/2000/svg">
<path d="M1.25063 10L0.146627 8.092C0.0139427 7.86244 -0.0221443 7.58958 0.0463028 7.33343C0.11475 7.07727 0.282124 6.85878 0.511627 6.726L2.42163 5.622V3.422C2.42163 3.15678 2.52699 2.90243 2.71452 2.71489C2.90206 2.52735 3.15641 2.422 3.42163 2.422H5.62063L6.72363 0.512997C6.85617 0.283327 7.07451 0.115706 7.33063 0.0469964C7.45751 0.012998 7.58984 0.00433044 7.72008 0.0214887C7.85031 0.038647 7.97588 0.0812951 8.08963 0.146997L9.99963 1.251L11.9096 0.145996C12.1393 0.0133941 12.4123 -0.0225405 12.6684 0.0460974C12.9246 0.114735 13.143 0.282324 13.2756 0.511997L14.3796 2.422H16.5786C16.8438 2.422 17.0982 2.52735 17.2857 2.71489C17.4733 2.90243 17.5786 3.15678 17.5786 3.422V5.621L19.4886 6.725C19.6024 6.79074 19.7021 6.87827 19.782 6.98257C19.8619 7.08687 19.9205 7.2059 19.9544 7.33285C19.9883 7.45981 19.9969 7.5922 19.9796 7.72246C19.9623 7.85272 19.9195 7.97829 19.8536 8.092L18.7496 10L19.8536 11.908C19.9856 12.1378 20.0215 12.4104 19.9533 12.6665C19.8851 12.9226 19.7184 13.1413 19.4896 13.275L17.5796 14.379V16.578C17.5796 16.8432 17.4743 17.0976 17.2867 17.2851C17.0992 17.4726 16.8448 17.578 16.5796 17.578H14.3796L13.2756 19.488C13.1871 19.6393 13.0607 19.765 12.9088 19.8527C12.757 19.9404 12.585 19.987 12.4096 19.988C12.2356 19.988 12.0626 19.942 11.9086 19.853L10.0006 18.749L8.09063 19.853C7.86107 19.9857 7.58821 20.0218 7.33206 19.9533C7.0759 19.8849 6.85741 19.7175 6.72463 19.488L5.62163 17.578H3.42263C3.15741 17.578 2.90306 17.4726 2.71552 17.2851C2.52798 17.0976 2.42263 16.8432 2.42263 16.578V14.379L0.512629 13.275C0.398857 13.2093 0.299158 13.1217 0.219233 13.0174C0.139307 12.9131 0.080719 12.7941 0.0468216 12.6671C0.0129242 12.5402 0.00437737 12.4078 0.0216751 12.2775C0.0389729 12.1473 0.0817738 12.0217 0.147629 11.908L1.25063 10ZM12.5006 4.99C12.1027 4.99013 11.7211 5.14834 11.4398 5.42984C11.1585 5.71133 11.0005 6.09304 11.0006 6.491C11.0008 6.88896 11.159 7.27056 11.4405 7.55187C11.722 7.83317 12.1037 7.99113 12.5016 7.991C12.8996 7.99087 13.2812 7.83265 13.5625 7.55116C13.8438 7.26967 14.0018 6.88795 14.0016 6.49C14.0015 6.09204 13.8433 5.71043 13.5618 5.42913C13.2803 5.14783 12.8986 4.98986 12.5006 4.99ZM12.2006 14.59L13.8006 13.391L7.80063 5.391L6.20063 6.59L12.2006 14.59ZM7.50063 14.99C7.69768 14.9899 7.89278 14.9511 8.07481 14.8756C8.25683 14.8001 8.42221 14.6895 8.56149 14.5502C8.70078 14.4108 8.81125 14.2453 8.8866 14.0633C8.96195 13.8812 9.00069 13.686 9.00063 13.489C9.00056 13.2919 8.96169 13.0968 8.88622 12.9148C8.81075 12.7328 8.70017 12.5674 8.56079 12.4281C8.42141 12.2888 8.25596 12.1784 8.07388 12.103C7.89181 12.0277 7.69668 11.9889 7.49963 11.989C7.10167 11.9891 6.72006 12.1473 6.43876 12.4288C6.15746 12.7103 5.99949 13.092 5.99963 13.49C5.99976 13.888 6.15798 14.2696 6.43947 14.5509C6.72096 14.8322 7.10267 14.9901 7.50063 14.99Z" fill="#6B6D6E"/>
</svg>
