<svg width="22" height="22" viewBox="0 0 22 22" fill="none" xmlns="http://www.w3.org/2000/svg">
<path fill-rule="evenodd" clip-rule="evenodd" d="M15.3588 1.83337H6.64125C5.57883 1.83337 5.04808 1.83337 4.61908 1.98279C4.21477 2.12645 3.84895 2.36125 3.54995 2.66899C3.25095 2.97674 3.02679 3.34917 2.89483 3.75746C2.75 4.19929 2.75 4.74562 2.75 5.83921V18.6762C2.75 19.4627 3.65292 19.8807 4.224 19.3582C4.38422 19.2102 4.59435 19.1279 4.8125 19.1279C5.03065 19.1279 5.24078 19.2102 5.401 19.3582L5.84375 19.7634C6.12444 20.0229 6.49269 20.1671 6.875 20.1671C7.25731 20.1671 7.62556 20.0229 7.90625 19.7634C8.18694 19.5038 8.55519 19.3596 8.9375 19.3596C9.31981 19.3596 9.68806 19.5038 9.96875 19.7634C10.2494 20.0229 10.6177 20.1671 11 20.1671C11.3823 20.1671 11.7506 20.0229 12.0312 19.7634C12.3119 19.5038 12.6802 19.3596 13.0625 19.3596C13.4448 19.3596 13.8131 19.5038 14.0938 19.7634C14.3744 20.0229 14.7427 20.1671 15.125 20.1671C15.5073 20.1671 15.8756 20.0229 16.1562 19.7634L16.599 19.3582C16.7592 19.2102 16.9694 19.1279 17.1875 19.1279C17.4056 19.1279 17.6158 19.2102 17.776 19.3582C18.3471 19.8807 19.25 19.4627 19.25 18.6762V5.83921C19.25 4.74562 19.25 4.19837 19.1052 3.75837C18.8302 2.92146 18.1931 2.26512 17.3809 1.98279C16.9519 1.83337 16.4212 1.83337 15.3588 1.83337ZM15.5833 6.18754C15.7657 6.18754 15.9405 6.25997 16.0695 6.3889C16.1984 6.51784 16.2708 6.6927 16.2708 6.87504C16.2708 7.05738 16.1984 7.23224 16.0695 7.36118C15.9405 7.49011 15.7657 7.56254 15.5833 7.56254H15.125C14.9427 7.56254 14.7678 7.49011 14.6389 7.36118C14.5099 7.23224 14.4375 7.05738 14.4375 6.87504C14.4375 6.6927 14.5099 6.51784 14.6389 6.3889C14.7678 6.25997 14.9427 6.18754 15.125 6.18754H15.5833ZM12.375 6.18754C12.5573 6.18754 12.7322 6.25997 12.8611 6.3889C12.9901 6.51784 13.0625 6.6927 13.0625 6.87504C13.0625 7.05738 12.9901 7.23224 12.8611 7.36118C12.7322 7.49011 12.5573 7.56254 12.375 7.56254H6.41667C6.23433 7.56254 6.05946 7.49011 5.93053 7.36118C5.8016 7.23224 5.72917 7.05738 5.72917 6.87504C5.72917 6.6927 5.8016 6.51784 5.93053 6.3889C6.05946 6.25997 6.23433 6.18754 6.41667 6.18754H12.375ZM15.5833 9.39587C15.7657 9.39587 15.9405 9.46831 16.0695 9.59724C16.1984 9.72617 16.2708 9.90104 16.2708 10.0834C16.2708 10.2657 16.1984 10.4406 16.0695 10.5695C15.9405 10.6984 15.7657 10.7709 15.5833 10.7709H15.125C14.9427 10.7709 14.7678 10.6984 14.6389 10.5695C14.5099 10.4406 14.4375 10.2657 14.4375 10.0834C14.4375 9.90104 14.5099 9.72617 14.6389 9.59724C14.7678 9.46831 14.9427 9.39587 15.125 9.39587H15.5833ZM12.375 9.39587C12.5573 9.39587 12.7322 9.46831 12.8611 9.59724C12.9901 9.72617 13.0625 9.90104 13.0625 10.0834C13.0625 10.2657 12.9901 10.4406 12.8611 10.5695C12.7322 10.6984 12.5573 10.7709 12.375 10.7709H6.41667C6.23433 10.7709 6.05946 10.6984 5.93053 10.5695C5.8016 10.4406 5.72917 10.2657 5.72917 10.0834C5.72917 9.90104 5.8016 9.72617 5.93053 9.59724C6.05946 9.46831 6.23433 9.39587 6.41667 9.39587H12.375ZM15.5833 12.6042C15.7657 12.6042 15.9405 12.6766 16.0695 12.8056C16.1984 12.9345 16.2708 13.1094 16.2708 13.2917C16.2708 13.474 16.1984 13.6489 16.0695 13.7778C15.9405 13.9068 15.7657 13.9792 15.5833 13.9792H15.125C14.9427 13.9792 14.7678 13.9068 14.6389 13.7778C14.5099 13.6489 14.4375 13.474 14.4375 13.2917C14.4375 13.1094 14.5099 12.9345 14.6389 12.8056C14.7678 12.6766 14.9427 12.6042 15.125 12.6042H15.5833ZM12.375 12.6042C12.5573 12.6042 12.7322 12.6766 12.8611 12.8056C12.9901 12.9345 13.0625 13.1094 13.0625 13.2917C13.0625 13.474 12.9901 13.6489 12.8611 13.7778C12.7322 13.9068 12.5573 13.9792 12.375 13.9792H6.41667C6.23433 13.9792 6.05946 13.9068 5.93053 13.7778C5.8016 13.6489 5.72917 13.474 5.72917 13.2917C5.72917 13.1094 5.8016 12.9345 5.93053 12.8056C6.05946 12.6766 6.23433 12.6042 6.41667 12.6042H12.375Z" fill="#6B6D6E"/>
</svg>
