<svg width="16" height="18" viewBox="0 0 16 18" fill="none" xmlns="http://www.w3.org/2000/svg">
<path d="M3.41675 17.25C2.91258 17.25 2.48114 17.0706 2.12242 16.7119C1.7637 16.3532 1.58403 15.9214 1.58342 15.4167V3.5C1.3237 3.5 1.10614 3.412 0.930751 3.236C0.755362 3.06 0.667362 2.84244 0.666751 2.58333C0.66614 2.32422 0.75414 2.10667 0.930751 1.93067C1.10736 1.75467 1.32492 1.66667 1.58342 1.66667H5.25008C5.25008 1.40694 5.33808 1.18939 5.51408 1.014C5.69008 0.838611 5.90764 0.750611 6.16675 0.75H9.83342C10.0931 0.75 10.311 0.838 10.487 1.014C10.663 1.19 10.7507 1.40756 10.7501 1.66667H14.4168C14.6765 1.66667 14.8943 1.75467 15.0703 1.93067C15.2463 2.10667 15.334 2.32422 15.3334 2.58333C15.3328 2.84244 15.2448 3.06031 15.0694 3.23692C14.894 3.41353 14.6765 3.50122 14.4168 3.5V15.4167C14.4168 15.9208 14.2374 16.3526 13.8787 16.7119C13.5199 17.0713 13.0882 17.2506 12.5834 17.25H3.41675ZM12.5834 3.5H3.41675V15.4167H12.5834V3.5ZM6.16675 13.5833C6.42647 13.5833 6.64433 13.4953 6.82033 13.3193C6.99634 13.1433 7.08403 12.9258 7.08342 12.6667V6.25C7.08342 5.99028 6.99542 5.77272 6.81942 5.59733C6.64342 5.42194 6.42586 5.33394 6.16675 5.33333C5.90764 5.33272 5.69008 5.42072 5.51408 5.59733C5.33808 5.77394 5.25008 5.9915 5.25008 6.25V12.6667C5.25008 12.9264 5.33808 13.1442 5.51408 13.3202C5.69008 13.4963 5.90764 13.5839 6.16675 13.5833ZM9.83342 13.5833C10.0931 13.5833 10.311 13.4953 10.487 13.3193C10.663 13.1433 10.7507 12.9258 10.7501 12.6667V6.25C10.7501 5.99028 10.6621 5.77272 10.4861 5.59733C10.3101 5.42194 10.0925 5.33394 9.83342 5.33333C9.57431 5.33272 9.35675 5.42072 9.18075 5.59733C9.00475 5.77394 8.91675 5.9915 8.91675 6.25V12.6667C8.91675 12.9264 9.00475 13.1442 9.18075 13.3202C9.35675 13.4963 9.57431 13.5839 9.83342 13.5833Z" fill="#E03A40"/>
</svg>
