<svg width="22" height="22" viewBox="0 0 22 22" fill="none" xmlns="http://www.w3.org/2000/svg">
<path d="M10.8282 11.553L8.54085 10.1711L6.25346 11.553L6.85673 8.93989L4.84583 7.20618L7.48513 6.98004L8.54085 4.51767L9.59657 6.98004L12.2359 7.20618L10.225 8.93989L10.8282 11.553ZM17.3888 20.9753C17.9418 21.0591 18.4401 20.9295 18.8839 20.5864C19.3276 20.2433 19.5833 19.7951 19.651 19.2416L20.9832 8.26148C21.0503 7.7087 20.9162 7.21455 20.5811 6.77903C20.2459 6.34351 19.8018 6.09225 19.2488 6.02524L18.0926 5.87449V14.0656C18.0926 15.1712 17.6988 16.1176 16.9112 16.9049C16.1236 17.6922 15.1768 18.0858 14.0708 18.0858H4.72015C4.8207 18.4879 5.02179 18.8356 5.32342 19.1291C5.62505 19.4225 5.99372 19.5941 6.42941 19.6437L17.3888 20.9753ZM14.0708 16.0757C14.6238 16.0757 15.097 15.8791 15.4905 15.4858C15.884 15.0925 16.081 14.6191 16.0817 14.0656V3.0101C16.0817 2.45732 15.8846 1.98428 15.4905 1.59097C15.0964 1.19766 14.6231 1.00067 14.0708 1H3.01089C2.4579 1 1.98433 1.19699 1.5902 1.59097C1.19606 1.98495 0.999332 2.45799 1 3.0101V14.0656C1 14.6184 1.19673 15.0918 1.5902 15.4858C1.98366 15.8798 2.45723 16.0764 3.01089 16.0757H14.0708Z" fill="#6B6D6E"/>
</svg>
