<svg width="20" height="20" viewBox="0 0 20 20" fill="none" xmlns="http://www.w3.org/2000/svg">
<path d="M9.7729 16.073H9.54563C7.39412 16.073 5.56836 15.3371 4.06836 13.8653C2.56836 12.3935 1.81836 10.6021 1.81836 8.49102C1.81836 6.37997 2.56836 4.58856 4.06836 3.11677C5.56836 1.64498 7.39412 0.909088 9.54563 0.909088C10.6214 0.909088 11.6253 1.10592 12.5575 1.49959C13.4896 1.89325 14.3078 2.43588 15.012 3.12747C15.7162 3.81906 16.269 4.62186 16.6702 5.53585C17.0714 6.44985 17.2723 7.4349 17.2729 8.49102C17.2729 10.4831 16.7008 12.334 15.5565 14.0437C14.4123 15.7533 12.9693 17.0913 11.2275 18.0576C11.0759 18.132 10.9244 18.173 10.7729 18.1807C10.6214 18.1885 10.485 18.1549 10.3638 18.0799C10.2426 18.005 10.1365 17.9084 10.0456 17.79C9.95472 17.6717 9.90169 17.5305 9.88654 17.3663L9.7729 16.073ZM9.52291 13.3747C9.78048 13.3747 10.0002 13.2855 10.182 13.1071C10.3638 12.9287 10.4547 12.7131 10.4547 12.4604C10.4547 12.2077 10.3638 11.9921 10.182 11.8137C10.0002 11.6353 9.78048 11.5461 9.52291 11.5461C9.26533 11.5461 9.04563 11.6353 8.86381 11.8137C8.682 11.9921 8.59109 12.2077 8.59109 12.4604C8.59109 12.7131 8.682 12.9287 8.86381 13.1071C9.04563 13.2855 9.26533 13.3747 9.52291 13.3747ZM7.54563 6.59554C7.7123 6.66987 7.87897 6.67374 8.04563 6.60713C8.2123 6.54053 8.34866 6.4326 8.45472 6.28334C8.59109 6.10494 8.75018 5.96728 8.932 5.87035C9.11381 5.77342 9.31836 5.72525 9.54563 5.72585C9.90927 5.72585 10.2047 5.82605 10.432 6.02645C10.6593 6.22685 10.7729 6.48344 10.7729 6.79624C10.7729 6.9895 10.7162 7.18277 10.6029 7.37603C10.4896 7.5693 10.2887 7.80716 10.0002 8.08962C9.62139 8.41669 9.34109 8.72532 9.15927 9.01551C8.97745 9.30571 8.88654 9.59917 8.88654 9.89591C8.88654 10.0743 8.95109 10.2268 9.08018 10.3535C9.20927 10.4802 9.36442 10.5432 9.54563 10.5426C9.72684 10.542 9.87836 10.4751 10.0002 10.3419C10.122 10.2087 10.2129 10.0526 10.2729 9.87361C10.3487 9.62088 10.485 9.39045 10.682 9.18231C10.879 8.97418 11.0608 8.78835 11.2275 8.62482C11.5456 8.31262 11.7844 8.00043 11.9438 7.68823C12.1032 7.37603 12.1826 7.06383 12.182 6.75164C12.182 6.06778 11.9432 5.51771 11.4656 5.10145C10.9881 4.68519 10.3481 4.47706 9.54563 4.47706C9.06078 4.47706 8.61381 4.59242 8.20472 4.82315C7.79563 5.05388 7.4623 5.36964 7.20472 5.77044C7.11381 5.93398 7.1023 6.09394 7.17018 6.25034C7.23806 6.40673 7.36321 6.5218 7.54563 6.59554Z" fill="#2F36F4"/>
</svg>
