<svg width="114" height="40" viewBox="0 0 114 40" fill="none" xmlns="http://www.w3.org/2000/svg">
<rect x="0.5" y="0.5" width="113" height="39" rx="9.5" fill="#EBEBFF" stroke="#D4D4FA"/>
<path d="M44.711 25.21C43.9737 25.21 43.3087 25.0817 42.716 24.825C42.128 24.5683 41.6427 24.202 41.26 23.726C40.882 23.2453 40.6417 22.676 40.539 22.018L42.289 21.752C42.4383 22.3493 42.744 22.8113 43.206 23.138C43.6727 23.4647 44.2093 23.628 44.816 23.628C45.1753 23.628 45.5137 23.572 45.831 23.46C46.1483 23.348 46.405 23.1847 46.601 22.97C46.8017 22.7553 46.902 22.4917 46.902 22.179C46.902 22.039 46.8787 21.9107 46.832 21.794C46.7853 21.6727 46.7153 21.5653 46.622 21.472C46.5333 21.3787 46.4167 21.2947 46.272 21.22C46.132 21.1407 45.9687 21.073 45.782 21.017L43.178 20.247C42.954 20.1817 42.7113 20.0953 42.45 19.988C42.1933 19.876 41.9483 19.7243 41.715 19.533C41.4863 19.337 41.2973 19.0897 41.148 18.791C41.0033 18.4877 40.931 18.1143 40.931 17.671C40.931 17.0223 41.0943 16.4787 41.421 16.04C41.7523 15.5967 42.1957 15.2653 42.751 15.046C43.311 14.8267 43.9317 14.7193 44.613 14.724C45.3037 14.7287 45.9197 14.8477 46.461 15.081C47.0023 15.3097 47.455 15.6433 47.819 16.082C48.183 16.5207 48.4397 17.0503 48.589 17.671L46.776 17.986C46.7013 17.6313 46.5567 17.3303 46.342 17.083C46.132 16.831 45.873 16.6397 45.565 16.509C45.2617 16.3783 44.9373 16.3083 44.592 16.299C44.256 16.2943 43.9433 16.3457 43.654 16.453C43.3693 16.5557 43.1383 16.705 42.961 16.901C42.7883 17.097 42.702 17.3257 42.702 17.587C42.702 17.8343 42.7767 18.0373 42.926 18.196C43.0753 18.35 43.2597 18.4737 43.479 18.567C43.703 18.6557 43.9293 18.7303 44.158 18.791L45.964 19.295C46.2113 19.3603 46.489 19.449 46.797 19.561C47.105 19.673 47.4013 19.8293 47.686 20.03C47.9707 20.2307 48.204 20.4943 48.386 20.821C48.5727 21.1477 48.666 21.563 48.666 22.067C48.666 22.5897 48.5563 23.0493 48.337 23.446C48.1223 23.838 47.8307 24.1647 47.462 24.426C47.0933 24.6873 46.671 24.8833 46.195 25.014C45.7237 25.1447 45.229 25.21 44.711 25.21ZM53.0162 25.217C52.4562 25.217 51.9942 25.1237 51.6302 24.937C51.2662 24.7503 50.9768 24.5123 50.7622 24.223C50.5475 23.9337 50.3888 23.6257 50.2862 23.299C50.1835 22.9723 50.1158 22.6643 50.0832 22.375C50.0552 22.081 50.0412 21.843 50.0412 21.661V17.44H51.7492V21.08C51.7492 21.3133 51.7655 21.577 51.7982 21.871C51.8308 22.1603 51.9055 22.4403 52.0222 22.711C52.1435 22.977 52.3208 23.1963 52.5542 23.369C52.7922 23.5417 53.1118 23.628 53.5132 23.628C53.7278 23.628 53.9402 23.593 54.1502 23.523C54.3602 23.453 54.5492 23.334 54.7172 23.166C54.8898 22.9933 55.0275 22.7577 55.1302 22.459C55.2328 22.1603 55.2842 21.7823 55.2842 21.325L56.2852 21.752C56.2852 22.396 56.1592 22.9793 55.9072 23.502C55.6598 24.0247 55.2935 24.4423 54.8082 24.755C54.3228 25.063 53.7255 25.217 53.0162 25.217ZM55.4872 25V22.655H55.2842V17.44H56.9782V25H55.4872ZM62.5778 25.21C61.8405 25.21 61.2222 25.035 60.7228 24.685C60.2235 24.335 59.8478 23.859 59.5958 23.257C59.3438 22.6503 59.2178 21.9713 59.2178 21.22C59.2178 20.4593 59.3438 19.778 59.5958 19.176C59.8478 18.574 60.2165 18.1003 60.7018 17.755C61.1918 17.405 61.7962 17.23 62.5148 17.23C63.2288 17.23 63.8472 17.405 64.3698 17.755C64.8972 18.1003 65.3055 18.574 65.5948 19.176C65.8842 19.7733 66.0288 20.4547 66.0288 21.22C66.0288 21.976 65.8865 22.655 65.6018 23.257C65.3172 23.859 64.9158 24.335 64.3978 24.685C63.8798 25.035 63.2732 25.21 62.5778 25.21ZM58.9308 28.36V17.44H60.4218V22.746H60.6318V28.36H58.9308ZM62.3188 23.698C62.7575 23.698 63.1192 23.5883 63.4038 23.369C63.6885 23.1497 63.8985 22.8533 64.0338 22.48C64.1738 22.102 64.2438 21.682 64.2438 21.22C64.2438 20.7627 64.1738 20.3473 64.0338 19.974C63.8938 19.596 63.6768 19.2973 63.3828 19.078C63.0888 18.854 62.7155 18.742 62.2628 18.742C61.8335 18.742 61.4835 18.847 61.2128 19.057C60.9422 19.2623 60.7415 19.5517 60.6108 19.925C60.4848 20.2937 60.4218 20.7253 60.4218 21.22C60.4218 21.71 60.4848 22.1417 60.6108 22.515C60.7415 22.8883 60.9445 23.18 61.2198 23.39C61.4998 23.5953 61.8662 23.698 62.3188 23.698ZM71.2048 25.21C70.4675 25.21 69.8491 25.035 69.3498 24.685C68.8505 24.335 68.4748 23.859 68.2228 23.257C67.9708 22.6503 67.8448 21.9713 67.8448 21.22C67.8448 20.4593 67.9708 19.778 68.2228 19.176C68.4748 18.574 68.8435 18.1003 69.3288 17.755C69.8188 17.405 70.4231 17.23 71.1418 17.23C71.8558 17.23 72.4741 17.405 72.9968 17.755C73.5241 18.1003 73.9325 18.574 74.2218 19.176C74.5111 19.7733 74.6558 20.4547 74.6558 21.22C74.6558 21.976 74.5135 22.655 74.2288 23.257C73.9441 23.859 73.5428 24.335 73.0248 24.685C72.5068 25.035 71.9001 25.21 71.2048 25.21ZM67.5578 28.36V17.44H69.0488V22.746H69.2588V28.36H67.5578ZM70.9458 23.698C71.3845 23.698 71.7461 23.5883 72.0308 23.369C72.3155 23.1497 72.5255 22.8533 72.6608 22.48C72.8008 22.102 72.8708 21.682 72.8708 21.22C72.8708 20.7627 72.8008 20.3473 72.6608 19.974C72.5208 19.596 72.3038 19.2973 72.0098 19.078C71.7158 18.854 71.3425 18.742 70.8898 18.742C70.4605 18.742 70.1105 18.847 69.8398 19.057C69.5691 19.2623 69.3685 19.5517 69.2378 19.925C69.1118 20.2937 69.0488 20.7253 69.0488 21.22C69.0488 21.71 69.1118 22.1417 69.2378 22.515C69.3685 22.8883 69.5715 23.18 69.8468 23.39C70.1268 23.5953 70.4931 23.698 70.9458 23.698ZM79.5378 25.21C78.7818 25.21 78.1214 25.0397 77.5568 24.699C76.9921 24.3583 76.5534 23.8893 76.2408 23.292C75.9328 22.69 75.7788 21.9993 75.7788 21.22C75.7788 20.4267 75.9374 19.7313 76.2548 19.134C76.5721 18.5367 77.0131 18.07 77.5778 17.734C78.1424 17.398 78.7958 17.23 79.5378 17.23C80.2984 17.23 80.9611 17.4003 81.5258 17.741C82.0904 18.0817 82.5291 18.553 82.8418 19.155C83.1544 19.7523 83.3108 20.4407 83.3108 21.22C83.3108 22.004 83.1521 22.697 82.8348 23.299C82.5221 23.8963 82.0834 24.3653 81.5188 24.706C80.9541 25.042 80.2938 25.21 79.5378 25.21ZM79.5378 23.628C80.2098 23.628 80.7091 23.404 81.0358 22.956C81.3624 22.508 81.5258 21.9293 81.5258 21.22C81.5258 20.4873 81.3601 19.904 81.0288 19.47C80.6974 19.0313 80.2004 18.812 79.5378 18.812C79.0851 18.812 78.7118 18.9147 78.4178 19.12C78.1284 19.3207 77.9138 19.603 77.7738 19.967C77.6338 20.3263 77.5638 20.744 77.5638 21.22C77.5638 21.9527 77.7294 22.5383 78.0608 22.977C78.3968 23.411 78.8891 23.628 79.5378 23.628ZM84.853 25V17.44H86.344V19.281L86.162 19.043C86.2554 18.791 86.379 18.5623 86.533 18.357C86.6917 18.147 86.8807 17.9743 87.1 17.839C87.2867 17.713 87.492 17.615 87.716 17.545C87.9447 17.4703 88.178 17.426 88.416 17.412C88.654 17.3933 88.885 17.4027 89.109 17.44V19.015C88.885 18.9497 88.626 18.9287 88.332 18.952C88.0427 18.9753 87.7814 19.057 87.548 19.197C87.3147 19.323 87.1234 19.484 86.974 19.68C86.8294 19.876 86.722 20.1 86.652 20.352C86.582 20.5993 86.547 20.8677 86.547 21.157V25H84.853ZM94.8758 25C94.3765 25.0933 93.8865 25.133 93.4058 25.119C92.9298 25.1097 92.5028 25.0233 92.1248 24.86C91.7468 24.692 91.4598 24.4283 91.2638 24.069C91.0912 23.7423 91.0002 23.4087 90.9908 23.068C90.9815 22.7273 90.9768 22.3423 90.9768 21.913V15.34H92.6568V21.815C92.6568 22.1183 92.6592 22.3843 92.6638 22.613C92.6732 22.8417 92.7222 23.0283 92.8108 23.173C92.9788 23.453 93.2472 23.6093 93.6158 23.642C93.9845 23.6747 94.4045 23.656 94.8758 23.586V25ZM89.6048 18.763V17.44H94.8758V18.763H89.6048Z" fill="#2F36F4"/>
<path d="M25.7729 26.073H25.5456C23.3941 26.073 21.5684 25.3371 20.0684 23.8653C18.5684 22.3935 17.8184 20.6021 17.8184 18.491C17.8184 16.38 18.5684 14.5886 20.0684 13.1168C21.5684 11.645 23.3941 10.9091 25.5456 10.9091C26.6214 10.9091 27.6253 11.1059 28.5575 11.4996C29.4896 11.8933 30.3078 12.4359 31.012 13.1275C31.7162 13.8191 32.269 14.6219 32.6702 15.5359C33.0714 16.4498 33.2723 17.4349 33.2729 18.491C33.2729 20.4831 32.7008 22.334 31.5565 24.0437C30.4123 25.7533 28.9693 27.0913 27.2275 28.0576C27.0759 28.132 26.9244 28.173 26.7729 28.1807C26.6214 28.1885 26.485 28.1549 26.3638 28.0799C26.2426 28.005 26.1365 27.9084 26.0456 27.79C25.9547 27.6717 25.9017 27.5305 25.8865 27.3663L25.7729 26.073ZM25.5229 23.3747C25.7805 23.3747 26.0002 23.2855 26.182 23.1071C26.3638 22.9287 26.4547 22.7131 26.4547 22.4604C26.4547 22.2077 26.3638 21.9921 26.182 21.8137C26.0002 21.6353 25.7805 21.5461 25.5229 21.5461C25.2653 21.5461 25.0456 21.6353 24.8638 21.8137C24.682 21.9921 24.5911 22.2077 24.5911 22.4604C24.5911 22.7131 24.682 22.9287 24.8638 23.1071C25.0456 23.2855 25.2653 23.3747 25.5229 23.3747ZM23.5456 16.5955C23.7123 16.6699 23.879 16.6737 24.0456 16.6071C24.2123 16.5405 24.3487 16.4326 24.4547 16.2833C24.5911 16.1049 24.7502 15.9673 24.932 15.8703C25.1138 15.7734 25.3184 15.7253 25.5456 15.7258C25.9093 15.7258 26.2047 15.826 26.432 16.0264C26.6593 16.2268 26.7729 16.4834 26.7729 16.7962C26.7729 16.9895 26.7162 17.1828 26.6029 17.376C26.4896 17.5693 26.2887 17.8072 26.0002 18.0896C25.6214 18.4167 25.3411 18.7253 25.1593 19.0155C24.9775 19.3057 24.8865 19.5992 24.8865 19.8959C24.8865 20.0743 24.9511 20.2268 25.0802 20.3535C25.2093 20.4802 25.3644 20.5432 25.5456 20.5426C25.7268 20.542 25.8784 20.4751 26.0002 20.3419C26.122 20.2087 26.2129 20.0526 26.2729 19.8736C26.3487 19.6209 26.485 19.3904 26.682 19.1823C26.879 18.9742 27.0608 18.7884 27.2275 18.6248C27.5456 18.3126 27.7844 18.0004 27.9438 17.6882C28.1032 17.376 28.1826 17.0638 28.182 16.7516C28.182 16.0678 27.9432 15.5177 27.4656 15.1015C26.9881 14.6852 26.3481 14.4771 25.5456 14.4771C25.0608 14.4771 24.6138 14.5924 24.2047 14.8231C23.7956 15.0539 23.4623 15.3696 23.2047 15.7704C23.1138 15.934 23.1023 16.0939 23.1702 16.2503C23.2381 16.4067 23.3632 16.5218 23.5456 16.5955Z" fill="#2F36F4"/>
</svg>
